<svg width="1200" height="630" viewBox="0 0 1200 630" fill="none" xmlns="http://www.w3.org/2000/svg">
<g clip-path="url(#clip0_1125_551)">
<rect x="56" y="59" width="8" height="8" rx="4" fill="white" fill-opacity="0.2"/>
<rect x="128" y="59" width="8" height="8" rx="4" fill="white" fill-opacity="0.2"/>
<rect x="200" y="59" width="8" height="8" rx="4" fill="white" fill-opacity="0.2"/>
<rect x="272" y="59" width="8" height="8" rx="4" fill="white" fill-opacity="0.2"/>
<rect x="344" y="59" width="8" height="8" rx="4" fill="white" fill-opacity="0.2"/>
<rect x="416" y="59" width="8" height="8" rx="4" fill="white" fill-opacity="0.2"/>
<rect x="488" y="59" width="8" height="8" rx="4" fill="white" fill-opacity="0.2"/>
<rect x="560" y="59" width="8" height="8" rx="4" fill="white" fill-opacity="0.2"/>
<rect x="632" y="59" width="8" height="8" rx="4" fill="white" fill-opacity="0.2"/>
<rect x="704" y="59" width="8" height="8" rx="4" fill="white" fill-opacity="0.2"/>
<rect x="776" y="59" width="8" height="8" rx="4" fill="white" fill-opacity="0.2"/>
<rect x="848" y="59" width="8" height="8" rx="4" fill="white" fill-opacity="0.2"/>
<rect x="920" y="59" width="8" height="8" rx="4" fill="white" fill-opacity="0.2"/>
<rect x="992" y="59" width="8" height="8" rx="4" fill="white" fill-opacity="0.2"/>
<rect x="1064" y="59" width="8" height="8" rx="4" fill="white" fill-opacity="0.2"/>
<rect x="1136" y="59" width="8" height="8" rx="4" fill="white" fill-opacity="0.2"/>
<rect x="56" y="131" width="8" height="8" rx="4" fill="white" fill-opacity="0.2"/>
<rect x="128" y="131" width="8" height="8" rx="4" fill="white" fill-opacity="0.2"/>
<rect x="200" y="131" width="8" height="8" rx="4" fill="white" fill-opacity="0.2"/>
<rect x="272" y="131" width="8" height="8" rx="4" fill="white" fill-opacity="0.2"/>
<rect x="344" y="131" width="8" height="8" rx="4" fill="white" fill-opacity="0.2"/>
<rect x="416" y="131" width="8" height="8" rx="4" fill="white" fill-opacity="0.2"/>
<rect x="488" y="131" width="8" height="8" rx="4" fill="white" fill-opacity="0.2"/>
<rect x="560" y="131" width="8" height="8" rx="4" fill="white" fill-opacity="0.2"/>
<rect x="632" y="131" width="8" height="8" rx="4" fill="white" fill-opacity="0.2"/>
<rect x="704" y="131" width="8" height="8" rx="4" fill="white" fill-opacity="0.2"/>
<rect x="776" y="131" width="8" height="8" rx="4" fill="white" fill-opacity="0.2"/>
<rect x="848" y="131" width="8" height="8" rx="4" fill="white" fill-opacity="0.2"/>
<rect x="920" y="131" width="8" height="8" rx="4" fill="white" fill-opacity="0.2"/>
<rect x="992" y="131" width="8" height="8" rx="4" fill="white" fill-opacity="0.2"/>
<rect x="1064" y="131" width="8" height="8" rx="4" fill="white" fill-opacity="0.2"/>
<rect x="1136" y="131" width="8" height="8" rx="4" fill="white" fill-opacity="0.2"/>
<rect x="56" y="203" width="8" height="8" rx="4" fill="white" fill-opacity="0.2"/>
<rect x="128" y="203" width="8" height="8" rx="4" fill="white" fill-opacity="0.2"/>
<rect x="200" y="203" width="8" height="8" rx="4" fill="white" fill-opacity="0.2"/>
<rect x="272" y="203" width="8" height="8" rx="4" fill="white" fill-opacity="0.2"/>
<rect x="344" y="203" width="8" height="8" rx="4" fill="white" fill-opacity="0.2"/>
<rect x="416" y="203" width="8" height="8" rx="4" fill="white" fill-opacity="0.2"/>
<rect x="488" y="203" width="8" height="8" rx="4" fill="white" fill-opacity="0.2"/>
<rect x="560" y="203" width="8" height="8" rx="4" fill="white" fill-opacity="0.2"/>
<rect x="632" y="203" width="8" height="8" rx="4" fill="white" fill-opacity="0.2"/>
<rect x="704" y="203" width="8" height="8" rx="4" fill="white" fill-opacity="0.2"/>
<rect x="776" y="203" width="8" height="8" rx="4" fill="white" fill-opacity="0.2"/>
<rect x="848" y="203" width="8" height="8" rx="4" fill="white" fill-opacity="0.2"/>
<rect x="920" y="203" width="8" height="8" rx="4" fill="white" fill-opacity="0.2"/>
<rect x="992" y="203" width="8" height="8" rx="4" fill="white" fill-opacity="0.2"/>
<rect x="1064" y="203" width="8" height="8" rx="4" fill="white" fill-opacity="0.2"/>
<rect x="1136" y="203" width="8" height="8" rx="4" fill="white" fill-opacity="0.2"/>
<rect x="56" y="275" width="8" height="8" rx="4" fill="white" fill-opacity="0.2"/>
<rect x="128" y="275" width="8" height="8" rx="4" fill="white" fill-opacity="0.2"/>
<rect x="200" y="275" width="8" height="8" rx="4" fill="white" fill-opacity="0.2"/>
<rect x="272" y="275" width="8" height="8" rx="4" fill="white" fill-opacity="0.2"/>
<rect x="344" y="275" width="8" height="8" rx="4" fill="white" fill-opacity="0.2"/>
<rect x="416" y="275" width="8" height="8" rx="4" fill="white" fill-opacity="0.2"/>
<rect x="488" y="275" width="8" height="8" rx="4" fill="white" fill-opacity="0.2"/>
<rect x="560" y="275" width="8" height="8" rx="4" fill="white" fill-opacity="0.2"/>
<rect x="632" y="275" width="8" height="8" rx="4" fill="white" fill-opacity="0.2"/>
<rect x="704" y="275" width="8" height="8" rx="4" fill="white" fill-opacity="0.2"/>
<rect x="776" y="275" width="8" height="8" rx="4" fill="white" fill-opacity="0.2"/>
<rect x="848" y="275" width="8" height="8" rx="4" fill="white" fill-opacity="0.2"/>
<rect x="920" y="275" width="8" height="8" rx="4" fill="white" fill-opacity="0.2"/>
<rect x="992" y="275" width="8" height="8" rx="4" fill="white" fill-opacity="0.2"/>
<rect x="1064" y="275" width="8" height="8" rx="4" fill="white" fill-opacity="0.2"/>
<rect x="1136" y="275" width="8" height="8" rx="4" fill="white" fill-opacity="0.2"/>
<rect x="56" y="347" width="8" height="8" rx="4" fill="white" fill-opacity="0.2"/>
<rect x="128" y="347" width="8" height="8" rx="4" fill="white" fill-opacity="0.2"/>
<rect x="200" y="347" width="8" height="8" rx="4" fill="white" fill-opacity="0.2"/>
<rect x="272" y="347" width="8" height="8" rx="4" fill="white" fill-opacity="0.2"/>
<rect x="344" y="347" width="8" height="8" rx="4" fill="white" fill-opacity="0.2"/>
<rect x="416" y="347" width="8" height="8" rx="4" fill="white" fill-opacity="0.2"/>
<rect x="488" y="347" width="8" height="8" rx="4" fill="white" fill-opacity="0.2"/>
<rect x="560" y="347" width="8" height="8" rx="4" fill="white" fill-opacity="0.2"/>
<rect x="632" y="347" width="8" height="8" rx="4" fill="white" fill-opacity="0.2"/>
<rect x="704" y="347" width="8" height="8" rx="4" fill="white" fill-opacity="0.2"/>
<rect x="776" y="347" width="8" height="8" rx="4" fill="white" fill-opacity="0.2"/>
<rect x="848" y="347" width="8" height="8" rx="4" fill="white" fill-opacity="0.2"/>
<rect x="920" y="347" width="8" height="8" rx="4" fill="white" fill-opacity="0.2"/>
<rect x="992" y="347" width="8" height="8" rx="4" fill="white" fill-opacity="0.2"/>
<rect x="1064" y="347" width="8" height="8" rx="4" fill="white" fill-opacity="0.2"/>
<rect x="1136" y="347" width="8" height="8" rx="4" fill="white" fill-opacity="0.2"/>
<rect x="56" y="419" width="8" height="8" rx="4" fill="white" fill-opacity="0.2"/>
<rect x="128" y="419" width="8" height="8" rx="4" fill="white" fill-opacity="0.2"/>
<rect x="200" y="419" width="8" height="8" rx="4" fill="white" fill-opacity="0.2"/>
<rect x="272" y="419" width="8" height="8" rx="4" fill="white" fill-opacity="0.2"/>
<rect x="344" y="419" width="8" height="8" rx="4" fill="white" fill-opacity="0.2"/>
<rect x="416" y="419" width="8" height="8" rx="4" fill="white" fill-opacity="0.2"/>
<rect x="488" y="419" width="8" height="8" rx="4" fill="white" fill-opacity="0.2"/>
<rect x="560" y="419" width="8" height="8" rx="4" fill="white" fill-opacity="0.2"/>
<rect x="632" y="419" width="8" height="8" rx="4" fill="white" fill-opacity="0.2"/>
<rect x="704" y="419" width="8" height="8" rx="4" fill="white" fill-opacity="0.2"/>
<rect x="776" y="419" width="8" height="8" rx="4" fill="white" fill-opacity="0.2"/>
<rect x="848" y="419" width="8" height="8" rx="4" fill="white" fill-opacity="0.2"/>
<rect x="920" y="419" width="8" height="8" rx="4" fill="white" fill-opacity="0.2"/>
<rect x="992" y="419" width="8" height="8" rx="4" fill="white" fill-opacity="0.2"/>
<rect x="1064" y="419" width="8" height="8" rx="4" fill="white" fill-opacity="0.2"/>
<rect x="1136" y="419" width="8" height="8" rx="4" fill="white" fill-opacity="0.2"/>
<rect x="56" y="491" width="8" height="8" rx="4" fill="white" fill-opacity="0.2"/>
<rect x="128" y="491" width="8" height="8" rx="4" fill="white" fill-opacity="0.2"/>
<rect x="200" y="491" width="8" height="8" rx="4" fill="white" fill-opacity="0.2"/>
<rect x="272" y="491" width="8" height="8" rx="4" fill="white" fill-opacity="0.2"/>
<rect x="344" y="491" width="8" height="8" rx="4" fill="white" fill-opacity="0.2"/>
<rect x="416" y="491" width="8" height="8" rx="4" fill="white" fill-opacity="0.2"/>
<rect x="488" y="491" width="8" height="8" rx="4" fill="white" fill-opacity="0.2"/>
<rect x="560" y="491" width="8" height="8" rx="4" fill="white" fill-opacity="0.2"/>
<rect x="632" y="491" width="8" height="8" rx="4" fill="white" fill-opacity="0.2"/>
<rect x="704" y="491" width="8" height="8" rx="4" fill="white" fill-opacity="0.2"/>
<rect x="776" y="491" width="8" height="8" rx="4" fill="white" fill-opacity="0.2"/>
<rect x="848" y="491" width="8" height="8" rx="4" fill="white" fill-opacity="0.2"/>
<rect x="920" y="491" width="8" height="8" rx="4" fill="white" fill-opacity="0.2"/>
<rect x="992" y="491" width="8" height="8" rx="4" fill="white" fill-opacity="0.2"/>
<rect x="1064" y="491" width="8" height="8" rx="4" fill="white" fill-opacity="0.2"/>
<rect x="1136" y="491" width="8" height="8" rx="4" fill="white" fill-opacity="0.2"/>
<rect x="56" y="563" width="8" height="8" rx="4" fill="white" fill-opacity="0.2"/>
<rect x="128" y="563" width="8" height="8" rx="4" fill="white" fill-opacity="0.2"/>
<rect x="200" y="563" width="8" height="8" rx="4" fill="white" fill-opacity="0.2"/>
<rect x="272" y="563" width="8" height="8" rx="4" fill="white" fill-opacity="0.2"/>
<rect x="344" y="563" width="8" height="8" rx="4" fill="white" fill-opacity="0.2"/>
<rect x="416" y="563" width="8" height="8" rx="4" fill="white" fill-opacity="0.2"/>
<rect x="488" y="563" width="8" height="8" rx="4" fill="white" fill-opacity="0.2"/>
<rect x="560" y="563" width="8" height="8" rx="4" fill="white" fill-opacity="0.2"/>
<rect x="632" y="563" width="8" height="8" rx="4" fill="white" fill-opacity="0.2"/>
<rect x="704" y="563" width="8" height="8" rx="4" fill="white" fill-opacity="0.2"/>
<rect x="776" y="563" width="8" height="8" rx="4" fill="white" fill-opacity="0.2"/>
<rect x="848" y="563" width="8" height="8" rx="4" fill="white" fill-opacity="0.2"/>
<rect x="920" y="563" width="8" height="8" rx="4" fill="white" fill-opacity="0.2"/>
<rect x="992" y="563" width="8" height="8" rx="4" fill="white" fill-opacity="0.2"/>
<rect x="1064" y="563" width="8" height="8" rx="4" fill="white" fill-opacity="0.2"/>
<rect x="1136" y="563" width="8" height="8" rx="4" fill="white" fill-opacity="0.2"/>
</g>
<defs>
<clipPath id="clip0_1125_551">
<rect width="1200" height="630" fill="white"/>
</clipPath>
</defs>
</svg>
