<svg width="1024" height="512" viewBox="0 0 1024 512" fill="none" xmlns="http://www.w3.org/2000/svg">
<g clip-path="url(#clip0_1115_367)">
<rect width="1024" height="512" fill="#222222"/>
<rect x="40" y="36" width="8" height="8" rx="4" fill="white" fill-opacity="0.2"/>
<rect x="112" y="36" width="8" height="8" rx="4" fill="white" fill-opacity="0.2"/>
<rect x="184" y="36" width="8" height="8" rx="4" fill="white" fill-opacity="0.2"/>
<rect x="256" y="36" width="8" height="8" rx="4" fill="white" fill-opacity="0.2"/>
<rect x="328" y="36" width="8" height="8" rx="4" fill="white" fill-opacity="0.2"/>
<rect x="400" y="36" width="8" height="8" rx="4" fill="white" fill-opacity="0.2"/>
<rect x="472" y="36" width="8" height="8" rx="4" fill="white" fill-opacity="0.2"/>
<rect x="544" y="36" width="8" height="8" rx="4" fill="white" fill-opacity="0.2"/>
<rect x="616" y="36" width="8" height="8" rx="4" fill="white" fill-opacity="0.2"/>
<rect x="688" y="36" width="8" height="8" rx="4" fill="white" fill-opacity="0.2"/>
<rect x="760" y="36" width="8" height="8" rx="4" fill="white" fill-opacity="0.2"/>
<rect x="832" y="36" width="8" height="8" rx="4" fill="white" fill-opacity="0.2"/>
<rect x="904" y="36" width="8" height="8" rx="4" fill="white" fill-opacity="0.2"/>
<rect x="976" y="36" width="8" height="8" rx="4" fill="white" fill-opacity="0.2"/>
<rect x="40" y="108" width="8" height="8" rx="4" fill="white" fill-opacity="0.2"/>
<rect x="112" y="108" width="8" height="8" rx="4" fill="white" fill-opacity="0.2"/>
<rect x="184" y="108" width="8" height="8" rx="4" fill="white" fill-opacity="0.2"/>
<rect x="256" y="108" width="8" height="8" rx="4" fill="white" fill-opacity="0.2"/>
<rect x="328" y="108" width="8" height="8" rx="4" fill="white" fill-opacity="0.2"/>
<rect x="400" y="108" width="8" height="8" rx="4" fill="white" fill-opacity="0.2"/>
<rect x="472" y="108" width="8" height="8" rx="4" fill="white" fill-opacity="0.2"/>
<rect x="544" y="108" width="8" height="8" rx="4" fill="white" fill-opacity="0.2"/>
<rect x="616" y="108" width="8" height="8" rx="4" fill="white" fill-opacity="0.2"/>
<rect x="688" y="108" width="8" height="8" rx="4" fill="white" fill-opacity="0.2"/>
<rect x="760" y="108" width="8" height="8" rx="4" fill="white" fill-opacity="0.2"/>
<rect x="832" y="108" width="8" height="8" rx="4" fill="white" fill-opacity="0.2"/>
<rect x="904" y="108" width="8" height="8" rx="4" fill="white" fill-opacity="0.2"/>
<rect x="976" y="108" width="8" height="8" rx="4" fill="white" fill-opacity="0.2"/>
<rect x="40" y="180" width="8" height="8" rx="4" fill="white" fill-opacity="0.2"/>
<rect x="112" y="180" width="8" height="8" rx="4" fill="white" fill-opacity="0.2"/>
<rect x="184" y="180" width="8" height="8" rx="4" fill="white" fill-opacity="0.2"/>
<rect x="256" y="180" width="8" height="8" rx="4" fill="white" fill-opacity="0.2"/>
<rect x="328" y="180" width="8" height="8" rx="4" fill="white" fill-opacity="0.2"/>
<rect x="400" y="180" width="8" height="8" rx="4" fill="white" fill-opacity="0.2"/>
<rect x="472" y="180" width="8" height="8" rx="4" fill="white" fill-opacity="0.2"/>
<rect x="544" y="180" width="8" height="8" rx="4" fill="white" fill-opacity="0.2"/>
<rect x="616" y="180" width="8" height="8" rx="4" fill="white" fill-opacity="0.2"/>
<rect x="688" y="180" width="8" height="8" rx="4" fill="white" fill-opacity="0.2"/>
<rect x="760" y="180" width="8" height="8" rx="4" fill="white" fill-opacity="0.2"/>
<rect x="832" y="180" width="8" height="8" rx="4" fill="white" fill-opacity="0.2"/>
<rect x="904" y="180" width="8" height="8" rx="4" fill="white" fill-opacity="0.2"/>
<rect x="976" y="180" width="8" height="8" rx="4" fill="white" fill-opacity="0.2"/>
<rect x="40" y="252" width="8" height="8" rx="4" fill="white" fill-opacity="0.2"/>
<rect x="112" y="252" width="8" height="8" rx="4" fill="white" fill-opacity="0.2"/>
<rect x="184" y="252" width="8" height="8" rx="4" fill="white" fill-opacity="0.2"/>
<rect x="256" y="252" width="8" height="8" rx="4" fill="white" fill-opacity="0.2"/>
<rect x="328" y="252" width="8" height="8" rx="4" fill="white" fill-opacity="0.2"/>
<rect x="400" y="252" width="8" height="8" rx="4" fill="white" fill-opacity="0.2"/>
<rect x="472" y="252" width="8" height="8" rx="4" fill="white" fill-opacity="0.2"/>
<rect x="544" y="252" width="8" height="8" rx="4" fill="white" fill-opacity="0.2"/>
<rect x="616" y="252" width="8" height="8" rx="4" fill="white" fill-opacity="0.2"/>
<rect x="688" y="252" width="8" height="8" rx="4" fill="white" fill-opacity="0.2"/>
<rect x="760" y="252" width="8" height="8" rx="4" fill="white" fill-opacity="0.2"/>
<rect x="832" y="252" width="8" height="8" rx="4" fill="white" fill-opacity="0.2"/>
<rect x="904" y="252" width="8" height="8" rx="4" fill="white" fill-opacity="0.2"/>
<rect x="976" y="252" width="8" height="8" rx="4" fill="white" fill-opacity="0.2"/>
<rect x="40" y="324" width="8" height="8" rx="4" fill="white" fill-opacity="0.2"/>
<rect x="112" y="324" width="8" height="8" rx="4" fill="white" fill-opacity="0.2"/>
<rect x="184" y="324" width="8" height="8" rx="4" fill="white" fill-opacity="0.2"/>
<rect x="256" y="324" width="8" height="8" rx="4" fill="white" fill-opacity="0.2"/>
<rect x="328" y="324" width="8" height="8" rx="4" fill="white" fill-opacity="0.2"/>
<rect x="400" y="324" width="8" height="8" rx="4" fill="white" fill-opacity="0.2"/>
<rect x="472" y="324" width="8" height="8" rx="4" fill="white" fill-opacity="0.2"/>
<rect x="544" y="324" width="8" height="8" rx="4" fill="white" fill-opacity="0.2"/>
<rect x="616" y="324" width="8" height="8" rx="4" fill="white" fill-opacity="0.2"/>
<rect x="688" y="324" width="8" height="8" rx="4" fill="white" fill-opacity="0.2"/>
<rect x="760" y="324" width="8" height="8" rx="4" fill="white" fill-opacity="0.2"/>
<rect x="832" y="324" width="8" height="8" rx="4" fill="white" fill-opacity="0.2"/>
<rect x="904" y="324" width="8" height="8" rx="4" fill="white" fill-opacity="0.2"/>
<rect x="976" y="324" width="8" height="8" rx="4" fill="white" fill-opacity="0.2"/>
<rect x="40" y="396" width="8" height="8" rx="4" fill="white" fill-opacity="0.2"/>
<rect x="112" y="396" width="8" height="8" rx="4" fill="white" fill-opacity="0.2"/>
<rect x="184" y="396" width="8" height="8" rx="4" fill="white" fill-opacity="0.2"/>
<rect x="256" y="396" width="8" height="8" rx="4" fill="white" fill-opacity="0.2"/>
<rect x="328" y="396" width="8" height="8" rx="4" fill="white" fill-opacity="0.2"/>
<rect x="400" y="396" width="8" height="8" rx="4" fill="white" fill-opacity="0.2"/>
<rect x="472" y="396" width="8" height="8" rx="4" fill="white" fill-opacity="0.2"/>
<rect x="544" y="396" width="8" height="8" rx="4" fill="white" fill-opacity="0.2"/>
<rect x="616" y="396" width="8" height="8" rx="4" fill="white" fill-opacity="0.2"/>
<rect x="688" y="396" width="8" height="8" rx="4" fill="white" fill-opacity="0.2"/>
<rect x="760" y="396" width="8" height="8" rx="4" fill="white" fill-opacity="0.2"/>
<rect x="832" y="396" width="8" height="8" rx="4" fill="white" fill-opacity="0.2"/>
<rect x="904" y="396" width="8" height="8" rx="4" fill="white" fill-opacity="0.2"/>
<rect x="976" y="396" width="8" height="8" rx="4" fill="white" fill-opacity="0.2"/>
<rect x="40" y="468" width="8" height="8" rx="4" fill="white" fill-opacity="0.2"/>
<rect x="112" y="468" width="8" height="8" rx="4" fill="white" fill-opacity="0.2"/>
<rect x="184" y="468" width="8" height="8" rx="4" fill="white" fill-opacity="0.2"/>
<rect x="256" y="468" width="8" height="8" rx="4" fill="white" fill-opacity="0.2"/>
<rect x="328" y="468" width="8" height="8" rx="4" fill="white" fill-opacity="0.2"/>
<rect x="400" y="468" width="8" height="8" rx="4" fill="white" fill-opacity="0.2"/>
<rect x="472" y="468" width="8" height="8" rx="4" fill="white" fill-opacity="0.2"/>
<rect x="544" y="468" width="8" height="8" rx="4" fill="white" fill-opacity="0.2"/>
<rect x="616" y="468" width="8" height="8" rx="4" fill="white" fill-opacity="0.2"/>
<rect x="688" y="468" width="8" height="8" rx="4" fill="white" fill-opacity="0.2"/>
<rect x="760" y="468" width="8" height="8" rx="4" fill="white" fill-opacity="0.2"/>
<rect x="832" y="468" width="8" height="8" rx="4" fill="white" fill-opacity="0.2"/>
<rect x="904" y="468" width="8" height="8" rx="4" fill="white" fill-opacity="0.2"/>
<rect x="976" y="468" width="8" height="8" rx="4" fill="white" fill-opacity="0.2"/>
<g filter="url(#filter0_d_1115_367)">
<g clip-path="url(#clip1_1115_367)">
<rect x="375.714" y="154.876" width="240" height="240" rx="40" transform="rotate(-8.42448 375.714 154.876)" fill="#3377FF"/>
<path d="M526.658 354.97C581.318 346.875 619.066 296.002 610.971 241.342C602.876 186.682 552.002 148.934 497.343 157.03C442.683 165.125 404.935 215.998 413.03 270.658C421.125 325.318 471.998 363.066 526.658 354.97Z" stroke="white" stroke-opacity="0.5" stroke-width="4" stroke-miterlimit="10" stroke-dasharray="12 8"/>
<path d="M559.632 168.073L529.956 172.468L550.467 310.957L548.578 311.237L498.628 177.108L440.927 185.654L464.368 343.927L494.044 339.532L473.534 201.043L475.423 200.763L525.373 334.892L583.073 326.346L559.632 168.073Z" fill="url(#paint0_linear_1115_367)"/>
<path d="M585.345 328.032L524.063 337.108L476.983 210.681L496.316 341.217L462.683 346.199L438.656 183.968L499.937 174.892L547.018 301.319L527.685 170.783L561.318 165.801L585.345 328.032ZM526.682 332.676L580.802 324.661L557.947 170.344L532.228 174.153L552.738 312.643L547.268 313.453L497.318 179.324L443.199 187.339L466.054 341.656L491.773 337.847L471.262 199.357L476.732 198.547L526.682 332.676Z" fill="white"/>
<path d="M515.912 338.315L504.042 340.073L503.456 336.116L515.326 334.358L515.912 338.315Z" fill="white" fill-opacity="0.5"/>
<path d="M519.959 171.927L508.088 173.685L508.674 177.642L520.545 175.884L519.959 171.927Z" fill="white" fill-opacity="0.5"/>
<path d="M440.126 166.595L436.169 167.181L437.928 179.052L441.884 178.466L440.126 166.595Z" fill="white" fill-opacity="0.5"/>
<path d="M558.831 149.015L554.875 149.601L556.633 161.471L560.589 160.885L558.831 149.015Z" fill="white" fill-opacity="0.5"/>
<path d="M586.073 332.948L582.116 333.534L583.874 345.405L587.831 344.819L586.073 332.948Z" fill="white" fill-opacity="0.5"/>
<path d="M467.367 350.529L463.411 351.115L465.169 362.985L469.126 362.399L467.367 350.529Z" fill="white" fill-opacity="0.5"/>
<path d="M515.912 338.315L515.326 334.358L503.456 336.116L504.042 340.073L515.912 338.315Z" fill="white" fill-opacity="0.5"/>
<path d="M455.046 347.33L454.46 343.373L442.589 345.131L443.175 349.088L455.046 347.33Z" fill="white" fill-opacity="0.5"/>
<path d="M520.545 175.884L519.959 171.927L508.088 173.685L508.674 177.642L520.545 175.884Z" fill="white" fill-opacity="0.5"/>
<path d="M604.852 325.143L604.266 321.186L592.396 322.944L592.982 326.901L604.852 325.143Z" fill="white" fill-opacity="0.5"/>
<path d="M431.605 189.056L431.019 185.099L419.149 186.857L419.735 190.814L431.605 189.056Z" fill="white" fill-opacity="0.5"/>
<path d="M581.411 166.869L580.825 162.912L568.955 164.67L569.541 168.627L581.411 166.869Z" fill="white" fill-opacity="0.5"/>
</g>
</g>
</g>
<defs>
<filter id="filter0_d_1115_367" x="343.714" y="103.714" width="336.572" height="336.572" filterUnits="userSpaceOnUse" color-interpolation-filters="sRGB">
<feFlood flood-opacity="0" result="BackgroundImageFix"/>
<feColorMatrix in="SourceAlpha" type="matrix" values="0 0 0 0 0 0 0 0 0 0 0 0 0 0 0 0 0 0 127 0" result="hardAlpha"/>
<feOffset dy="16"/>
<feGaussianBlur stdDeviation="16"/>
<feComposite in2="hardAlpha" operator="out"/>
<feColorMatrix type="matrix" values="0 0 0 0 0 0 0 0 0 0 0 0 0 0 0 0 0 0 0.2 0"/>
<feBlend mode="normal" in2="BackgroundImageFix" result="effect1_dropShadow_1115_367"/>
<feBlend mode="normal" in="SourceGraphic" in2="effect1_dropShadow_1115_367" result="shape"/>
</filter>
<linearGradient id="paint0_linear_1115_367" x1="500.28" y1="176.863" x2="523.721" y2="335.137" gradientUnits="userSpaceOnUse">
<stop stop-color="white" stop-opacity="0.8"/>
<stop offset="1" stop-color="white" stop-opacity="0.2"/>
</linearGradient>
<clipPath id="clip0_1115_367">
<rect width="1024" height="512" fill="white"/>
</clipPath>
<clipPath id="clip1_1115_367">
<rect x="375.714" y="154.876" width="240" height="240" rx="40" transform="rotate(-8.42448 375.714 154.876)" fill="white"/>
</clipPath>
</defs>
</svg>
